{"title":"Dredd 2012 CAM READNFO x264 AAC-UNiQUE","uid":7685041,"size":1537482523,"categoryP":"video","categoryS":"movies","magnet":"?xt=urn:btih:4dc17ce044d173926a07a5bc0ddc205768585965&amp;dn=Dredd+2012+CAM+READNFO+x264+AAC-UNiQUE&amp;tr=udp%3A%2F%2Ftracker.openbittorrent.com%3A80&amp;tr=udp%3A%2F%2Fopen.demonii.com%3A1337&amp;tr=udp%3A%2F%2Ftracker.coppersurfer.tk%3A6969&amp;tr=udp%3A%2F%2Fexodus.desync.com%3A6969","seeders":0,"leechers":0,"uploader":"hiest","files":-1,"time":1348924610,"description":"##     ## ##    ## ####  #######  ##     ## ######## \n##     ## ###   ##  ##  ##     ## ##     ## ##       \n##     ## ####  ##  ##  ##     ## ##     ## ##       \n##     ## ## ## ##  ##  ##     ## ##     ## ######   \n##     ## ##  ####  ##  ##  ## ## ##     ## ##       \n##     ## ##   ###  ##  ##    ##  ##     ## ##       \n #######  ##    ## ####  ##### ##  #######  ######## \n\n\n#############Credits To DiNGiE &amp; Unique#############\n\n\nGeneral\nComplete name : Dredd 2012 CAM READNFO x264 AAC-UNiQUE.mp4\nFormat : MPEG-4\nFormat profile : Base Media\nCodec ID : isom\nFile size : 1.39 GiB\nDuration : 1h 28mn\nOverall bit rate mode : Variable\nOverall bit rate : 2 262 Kbps\nEncoded date : UTC 2012-09-28 16:19:04\n\nVideo\nID : 1\nFormat : AVC\nFormat/Info : Advanced Video Codec\nFormat profile : &lt;a class=&quot;__cf_email__&quot; href=&quot;/cdn-cgi/l/email-protection&quot; data-cfemail=&quot;236b4a444b636f170d12&quot;&gt;[email&amp;#160;protected]&lt;/a&gt;&lt;script cf-hash='f9e31' type=&quot;text/javascript&quot;&gt;\n/* &lt;![CDATA[ */!function(){try{var t=&quot;currentScript&quot;in document?document.currentScript:function(){for(var t=document.getElementsByTagName(&quot;script&quot;),e=t.length;e--;)if(t[e].getAttribute(&quot;cf-hash&quot;))return t[e]}();if(t&amp;&amp;t.previousSibling){var e,r,n,i,c=t.previousSibling,a=c.getAttribute(&quot;data-cfemail&quot;);if(a){for(e=&quot;&quot;,r=parseInt(a.substr(0,2),16),n=2;a.length-n;n+=2)i=parseInt(a.substr(n,2),16)^r,e+=String.fromCharCode(i);e=document.createTextNode(e),c.parentNode.replaceChild(e,c)}}}catch(u){}}();/* ]]&gt; */&lt;/script&gt;\nFormat settings, CABAC : Yes\nFormat settings, ReFrames : 3 frames\nCodec ID : avc1\nCodec ID/Info : Advanced Video Coding\nDuration : 1h 28mn\nBit rate mode : Variable\nBit rate : 2 172 Kbps\nMaximum bit rate : 40.0 Mbps\nWidth : 720 pixels\nHeight : 288 pixels\nDisplay aspect ratio : 2.500\nFrame rate mode : Constant\nFrame rate : 29.970 fps\nColor space : YUV\nChroma subsampling : 4:2:0\nBit depth : 8 bits\nScan type : Progressive\nBits/(Pixel*Frame) : 0.350\nStream size : 1.34 GiB (96%)\nWriting library : x264 core 128 r2216 198a7ea\n\nAudio\nID : 2\nFormat : AAC\nFormat/Info : Advanced Audio Codec\nFormat profile : LC\nCodec ID : 40\nDuration : 1h 28mn\nBit rate mode : Variable\nBit rate : 86.2 Kbps\nMaximum bit rate : 108 Kbps\nChannel(s) : 2 channels\nChannel positions : Front: L R\nSampling rate : 44.1 KHz\nCompression mode : Lossy\nStream size : 54.4 MiB (4%)\nLanguage : English\nEncoded date : UTC 2012-09-28 16:19:45\nSource : 26K - Thanks! \n\nStoryline\nIn a violent, futuristic city where the police have the authority to act as judge, jury and executioner, a cop teams with a trainee to take down a gang that deals the reality-altering drug, SLO-MO.\n\niMDB: &lt;a href=&quot;\nhttp://www.imdb.com/title/tt1343727&quot; rel=&quot;nofollow&quot; target=&quot;_NEW&quot;&gt;\nhttp://www.imdb.com/title/tt1343727&lt;/a&gt;\n\nScreen Shots:\n     &lt;a href=&quot;\nhttp://i.imgur.com/kqLWz.png&quot; rel=&quot;nofollow&quot; target=&quot;_NEW&quot;&gt;\nhttp://i.imgur.com/kqLWz.png&lt;/a&gt;\n &lt;a href=&quot;\nhttp://i.imgur.com/2XTlZ.png&quot; rel=&quot;nofollow&quot; target=&quot;_NEW&quot;&gt;\nhttp://i.imgur.com/2XTlZ.png&lt;/a&gt;\n &lt;a href=&quot;\nhttp://i.imgur.com/w61A8.png&quot; rel=&quot;nofollow&quot; target=&quot;_NEW&quot;&gt;\nhttp://i.imgur.com/w61A8.png&lt;/a&gt;\n &lt;a href=&quot;\nhttp://i.imgur.com/oqrfE.png&quot; rel=&quot;nofollow&quot; target=&quot;_NEW&quot;&gt;\nhttp://i.imgur.com/oqrfE.png&lt;/a&gt;\n &lt;a href=&quot;\nhttp://i.imgur.com/rmHiu.png&quot; rel=&quot;nofollow&quot; target=&quot;_NEW&quot;&gt;\nhttp://i.imgur.com/rmHiu.png&lt;/a&gt;\n &lt;a href=&quot;\nhttp://i.imgur.com/375TV.png&quot; rel=&quot;nofollow&quot; target=&quot;_NEW&quot;&gt;\nhttp://i.imgur.com/375TV.png&lt;/a&gt;\n &lt;a href=&quot;\nhttp://i.imgur.com/p8MmK.png&quot; rel=&quot;nofollow&quot; target=&quot;_NEW&quot;&gt;\nhttp://i.imgur.com/p8MmK.png&lt;/a&gt;\n &lt;a href=&quot;\nhttp://i.imgur.com/yLtyf.png&quot; rel=&quot;nofollow&quot; target=&quot;_NEW&quot;&gt;\nhttp://i.imgur.com/yLtyf.png&lt;/a&gt;\n &lt;a href=&quot;\nhttp://i.imgur.com/IZ21X.png&quot; rel=&quot;nofollow&quot; target=&quot;_NEW&quot;&gt;\nhttp://i.imgur.com/IZ21X.png&lt;/a&gt;\n\n\n#############Credits To DiNGiE &amp; Unique#############\n\n\n##     ## ##    ## ####  #######  ##     ## ######## \n##     ## ###   ##  ##  ##     ## ##     ## ##       \n##     ## ####  ##  ##  ##     ## ##     ## ##       \n##     ## ## ## ##  ##  ##     ## ##     ## ######   \n##     ## ##  ####  ##  ##  ## ## ##     ## ##       \n##     ## ##   ###  ##  ##    ##  ##     ## ##       \n #######  ##    ## ####  ##### ##  #######  ######## ","torrent":{"xt":"urn:btih:4dc17ce044d173926a07a5bc0ddc205768585965","amp;dn":"Dredd+2012+CAM+READNFO+x264+AAC-UNiQUE","amp;tr":["udp%3A%2F%2Ftracker.openbittorrent.com%3A80","udp%3A%2F%2Fopen.demonii.com%3A1337","udp%3A%2F%2Ftracker.coppersurfer.tk%3A6969","udp%3A%2F%2Fexodus.desync.com%3A6969"],"infoHash":"4dc17ce044d173926a07a5bc0ddc205768585965","infoHashBuffer":{"type":"Buffer","data":[77,193,124,224,68,209,115,146,106,7,165,188,13,220,32,87,104,88,89,101]},"announce":[],"urlList":[]}}